<?xml version="1.0" standalone="no"?>
<!DOCTYPE svg PUBLIC "-//W3C//DTD SVG 20010904//EN"
 "http://www.w3.org/TR/2001/REC-SVG-20010904/DTD/svg10.dtd">
<svg version="1.0" xmlns="http://www.w3.org/2000/svg"
 width="1024.000000pt" height="1024.000000pt" viewBox="0 0 1024.000000 1024.000000"
 preserveAspectRatio="xMidYMid meet">
<metadata>
Created by potrace 1.14, written by Peter Selinger 2001-2017
</metadata>
<g transform="translate(0.000000,1024.000000) scale(0.100000,-0.100000)"
fill="#000000" stroke="none">
<path d="M8441 10221 c-37 -14 -58 -34 -135 -136 -92 -121 -655 -867 -984
-1305 -97 -129 -182 -242 -189 -250 -7 -8 -77 -101 -155 -206 -79 -105 -190
-253 -248 -330 -82 -108 -665 -881 -1076 -1427 -49 -65 -51 -70 -44 -110 5
-23 11 -64 14 -92 4 -27 11 -77 16 -110 13 -88 18 -123 26 -190 6 -58 8 -72
18 -125 3 -14 8 -47 11 -75 7 -55 8 -61 29 -215 8 -58 18 -127 22 -155 3 -27
8 -58 10 -69 2 -10 6 -44 10 -75 3 -31 8 -58 9 -61 2 -3 6 -34 10 -69 4 -34 8
-70 10 -79 1 -9 6 -42 10 -72 4 -30 9 -63 11 -74 2 -10 6 -44 9 -75 4 -31 8
-63 10 -71 6 -20 12 -62 20 -135 4 -32 9 -68 11 -80 2 -11 7 -38 10 -60 2 -22
9 -69 14 -105 5 -36 12 -87 15 -115 3 -27 10 -75 15 -105 6 -30 12 -77 15
-105 3 -27 9 -72 13 -99 l7 -50 151 200 c175 231 460 609 765 1014 117 157
219 292 226 300 17 23 195 258 301 400 51 69 103 139 116 155 13 17 73 95 133
175 555 737 756 1004 938 1245 116 154 308 408 425 565 245 326 223 296 253
335 41 52 511 678 536 713 16 23 25 51 26 85 4 62 -4 83 -41 122 -34 35 -11
18 -414 320 -173 130 -328 246 -345 259 -16 13 -88 68 -160 122 -71 54 -158
120 -193 146 -111 85 -155 98 -231 69z"/>
<path d="M5159 6276 c-2 -2 -29 -7 -59 -10 -30 -4 -66 -8 -80 -11 -14 -2 -95
-13 -180 -25 -212 -29 -202 -28 -320 -45 -58 -8 -127 -17 -155 -21 -27 -3 -57
-8 -65 -9 -9 -2 -43 -6 -75 -10 -33 -4 -67 -9 -77 -11 -9 -1 -38 -5 -65 -9
-26 -4 -59 -9 -73 -11 -14 -2 -63 -8 -110 -14 -47 -6 -110 -15 -140 -20 -30
-5 -80 -12 -110 -15 -30 -3 -82 -10 -115 -15 -33 -5 -80 -12 -105 -15 -25 -3
-56 -8 -70 -10 -14 -2 -45 -7 -70 -10 -25 -3 -56 -8 -70 -10 -14 -2 -50 -7
-80 -11 -77 -9 -130 -17 -210 -29 -14 -2 -62 -9 -107 -15 -46 -6 -97 -13 -115
-16 -18 -2 -67 -9 -108 -14 -41 -6 -84 -12 -95 -14 -11 -2 -45 -7 -76 -10 -31
-4 -66 -8 -76 -10 -11 -3 -44 -7 -74 -11 -30 -3 -61 -8 -69 -10 -8 -2 -40 -7
-70 -10 -56 -6 -70 -8 -150 -20 -25 -4 -56 -8 -70 -10 -14 -2 -43 -6 -65 -9
-22 -3 -60 -8 -85 -11 -25 -3 -72 -10 -105 -15 -33 -5 -78 -12 -100 -15 -68
-8 -199 -26 -225 -30 -14 -2 -45 -7 -70 -10 -25 -3 -56 -8 -70 -10 -14 -2 -45
-7 -70 -10 -25 -3 -56 -8 -70 -10 -14 -2 -49 -7 -79 -10 -30 -4 -63 -8 -74
-11 -11 -2 -43 -6 -71 -9 -51 -6 -90 -11 -136 -20 -14 -2 -52 -7 -85 -11 -130
-13 -198 -70 -201 -167 -2 -36 4 -60 19 -84 13 -20 128 -114 282 -230 406
-307 860 -649 1350 -1018 248 -186 612 -461 810 -610 198 -149 461 -347 585
-440 124 -93 227 -171 230 -175 3 -3 39 -30 80 -60 41 -30 80 -59 86 -65 6 -5
22 -17 34 -25 13 -8 37 -26 54 -41 17 -14 56 -43 86 -64 30 -22 62 -45 70 -52
8 -7 60 -46 115 -87 55 -41 105 -79 111 -85 7 -5 45 -34 85 -63 41 -29 76 -55
79 -59 3 -3 46 -36 95 -73 50 -37 101 -76 115 -86 14 -11 39 -30 55 -42 17
-12 35 -26 40 -31 6 -4 154 -116 330 -248 395 -296 372 -279 411 -309 17 -14
43 -33 56 -42 12 -10 86 -65 162 -123 77 -58 141 -104 142 -102 3 3 -10 98
-31 237 -3 19 -8 55 -11 80 -2 25 -7 56 -9 70 -3 14 -7 43 -11 65 -3 22 -7 50
-9 61 -2 12 -6 48 -10 80 -8 70 -11 91 -19 124 -3 14 -8 48 -11 75 -3 28 -7
64 -10 80 -2 17 -7 47 -10 68 -5 37 -10 75 -20 145 -11 71 -16 107 -20 137 -2
17 -11 77 -19 135 -9 58 -18 121 -20 140 -3 19 -8 53 -11 75 -21 143 -25 174
-29 205 -3 19 -8 53 -11 75 -3 22 -8 56 -11 75 -2 19 -6 46 -9 60 -2 14 -6 45
-9 70 -3 25 -8 54 -10 65 -2 11 -7 47 -11 80 -11 84 -11 87 -29 210 -26 175
-32 218 -41 290 -3 22 -7 51 -10 65 -3 14 -7 41 -9 60 -3 20 -12 85 -20 145
-25 172 -26 179 -41 285 -2 19 -12 82 -20 140 -16 110 -20 136 -30 210 -4 25
-8 56 -10 70 -2 14 -6 45 -9 70 -3 25 -8 54 -10 65 -2 11 -7 45 -11 75 -4 30
-9 62 -10 70 -3 16 -17 113 -20 145 -2 11 -8 54 -14 95 -6 41 -13 93 -16 115
-2 22 -6 49 -9 60 -3 19 -12 78 -22 155 -7 52 -14 102 -19 130 -2 14 -6 45 -9
70 -3 25 -8 54 -10 66 -2 11 -7 45 -11 75 -13 108 -20 142 -31 146 -5 2 -12 2
-15 -1z"/>
<path d="M7055 4716 c-68 -91 -636 -844 -672 -891 -13 -16 -27 -34 -31 -40 -4
-5 -19 -26 -32 -45 -14 -19 -28 -37 -31 -40 -16 -14 -240 -322 -237 -326 2 -2
49 -37 104 -78 54 -42 104 -79 109 -83 6 -4 46 -35 90 -68 44 -33 82 -62 85
-65 3 -3 113 -86 245 -185 132 -99 245 -184 251 -190 6 -5 22 -17 34 -25 13
-8 38 -27 55 -42 18 -16 37 -28 43 -28 6 0 12 -4 14 -8 2 -5 84 -69 183 -143
99 -73 182 -137 183 -141 2 -5 8 -8 14 -8 7 0 8 17 4 48 -4 26 -11 79 -16 117
-5 39 -11 86 -14 105 -23 159 -28 197 -32 224 -2 17 -6 47 -9 66 -3 19 -8 51
-10 70 -2 19 -7 53 -10 75 -10 64 -13 85 -25 175 -14 103 -20 147 -26 180 -2
14 -7 50 -10 80 -3 30 -7 57 -9 60 -2 3 -6 34 -10 70 -4 36 -9 72 -10 82 -2 9
-6 38 -10 65 -4 26 -9 59 -11 73 -2 14 -13 95 -24 180 -12 85 -23 162 -25 170
-2 8 -6 40 -10 71 -3 31 -7 65 -9 75 -2 11 -7 44 -11 74 -4 30 -8 62 -10 70
-3 19 -13 89 -21 155 -3 28 -8 57 -9 65 -2 9 -6 41 -10 73 -4 31 -10 59 -14
61 -3 2 -33 -33 -66 -78z"/>
<path d="M6134 2728 c3 -18 7 -49 10 -68 7 -50 16 -110 21 -145 2 -16 7 -48
10 -70 7 -47 12 -82 21 -149 3 -27 8 -58 10 -70 2 -12 11 -73 19 -136 8 -63
17 -126 19 -140 5 -27 16 -108 22 -153 4 -36 13 -98 18 -122 2 -11 7 -47 11
-80 4 -32 9 -68 11 -79 2 -11 6 -38 9 -61 4 -22 8 -53 11 -70 5 -34 9 -65 24
-180 6 -44 12 -91 14 -105 6 -33 13 -84 21 -145 4 -27 8 -54 9 -60 1 -11 57
-65 67 -65 3 0 15 -8 27 -18 11 -9 33 -26 48 -37 15 -11 40 -30 55 -42 15 -13
31 -23 37 -23 6 0 12 -4 14 -9 2 -5 80 -66 173 -136 94 -70 172 -132 173 -136
2 -5 9 -9 16 -9 6 0 32 -18 56 -40 25 -22 48 -40 51 -40 3 0 15 -8 27 -17 11
-10 30 -25 42 -33 12 -8 32 -23 43 -32 102 -82 285 -217 316 -233 41 -21 132
-16 157 9 8 9 19 16 24 16 4 0 18 20 30 45 19 39 21 57 17 113 -4 37 -8 78
-11 92 -2 14 -7 45 -10 70 -3 25 -8 54 -10 65 -2 11 -7 45 -10 76 -4 31 -8 66
-10 76 -3 11 -7 44 -11 74 -3 30 -8 61 -10 69 -2 8 -7 38 -10 66 -3 28 -7 59
-9 70 -3 17 -8 49 -22 154 -6 49 -15 110 -20 140 -2 14 -6 45 -9 70 -3 25 -8
59 -11 75 -3 17 -7 41 -9 55 -5 47 -15 119 -21 157 -3 21 -7 49 -9 63 -16 112
-12 106 -88 162 -40 29 -77 57 -83 63 -6 5 -22 17 -34 25 -12 8 -28 20 -34 25
-15 14 -99 77 -126 95 -12 8 -28 20 -34 25 -39 34 -96 75 -105 75 -5 0 -11 4
-13 9 -1 5 -104 85 -228 178 -124 93 -326 246 -450 339 -124 94 -231 173 -238
178 -9 5 -11 -1 -8 -26z"/>
</g>
</svg>
