<svg width="942.84" height="1024" fill="none" xmlns="http://www.w3.org/2000/svg"><g mask="url(#prefix__mask6_85)" fill-opacity=".5" fill-rule="evenodd" clip-path="url(#prefix__clip6_39)"><path d="M819.28 3.72l116.15 87.52c7.35 5.55 8.83 16.02 3.28 23.39L662.33 481.4 519.51 373.78 795.9 7.01c5.54-7.37 16.01-8.84 23.38-3.29zM662.33 481.4L554.56 624.41l-35.05-250.63L662.33 481.4z" fill="#299AD9"/><path d="M563.61 686.26l107.77-143.02 35.05 250.64-142.82-107.62z" fill="#1BC4F9"/><path d="M736.08 1004.63L714.95 855.3 571.96 747.54l26.64 188.38 111.5 84.03c11.62 8.76 28.02-.9 25.98-15.32z" fill="#AD73FB"/><path d="M14.07 460.55l463.36-64.26 71.51 502.21L6.5 489.73c-11.61-8.74-6.82-27.19 7.57-29.18z" fill="#90E2FC"/></g></svg>