<svg width="5031" height="1000" fill="none" xmlns="http://www.w3.org/2000/svg"><g clip-path="url(#prefix__clip5_221)"><g clip-path="url(#prefix__clip5_222)"><g mask="url(#prefix__mask5_225)" fill-rule="evenodd" clip-path="url(#prefix__clip5_223)"><path d="M840.12 3.63L953.54 89.1c7.18 5.42 8.63 15.65 3.21 22.84L686.84 470.11 547.38 365.02 817.28 6.85c5.42-7.2 15.64-8.64 22.84-3.22zM686.84 470.11L581.6 609.77l-34.22-244.75 139.46 105.09z" fill="#299AD9"/><path d="M590.44 670.18l105.24-139.67 34.23 244.76-139.47-105.09z" fill="#1BC4F9"/><path d="M758.87 981.08l-20.63-145.83-139.65-105.23 26.02 183.97 108.89 82.05c11.35 8.56 27.36-.88 25.37-14.96z" fill="#AD73FB"/><path d="M53.78 449.75L506.28 387l69.84 490.44L46.38 478.26c-11.33-8.54-6.66-26.56 7.4-28.51z" fill="#90E2FC"/></g></g><path d="M3171.31 247.62V766h79.1V247.62h-79.1zm1486.08 0V766h79.1v-37.81q1.25 1.42 2.53 2.8 13.96 14.95 32.79 25.34 1.11.6 2.21 1.17 30.15 15.7 68.46 15.7 30.46 0 57.11-10.07 14.27-5.39 27.43-13.66 13.96-8.76 25.75-19.81 20.17-18.9 34.02-44.52 3.38-6.27 6.23-12.76 15.75-35.78 15.75-78.48 0-46.45-18.12-84.21-1.84-3.81-3.86-7.54-13.83-25.7-33.96-44.76-11.83-11.2-25.81-20.11-13.79-8.79-28.78-14.37-26.07-9.71-55.76-9.71-35.17 0-63.76 13.71-3.14 1.5-6.2 3.17-17.48 9.53-30.84 23.09-2.68 2.71-5.19 5.59V247.62h-79.1zm-3302.72 14.41V766h82.79V516.07L1659.3 766h107.93l-238-263.84 230.79-240.13H1654.2l-216.74 229.1v-229.1h-82.79zm2511.36 0V766h320.45v-75.59h-237.66V262.03h-82.79zM2263.37 492.48V766h79.12V492.48h82.79v-72.07h-82.79V276.44h-79.12v143.97h-82.78v72.07h82.78zm-382.59 270.65q26.66 10.07 57.11 10.07 37.54 0 67.32-15.2 1.59-.81 3.17-1.67 19.65-10.77 33.9-26.45.72-.79 1.43-1.6V766h79.28V420.41h-79.28v38.22q-2.59-2.99-5.36-5.79-13.16-13.35-30.32-22.76-.89-.49-1.78-.97-29.95-15.91-68.36-15.91-29.68 0-55.75 9.71-15 5.58-28.8 14.37-13.98 8.91-25.79 20.11-20.13 19.06-33.97 44.76-2.02 3.73-3.85 7.54-18.13 37.76-18.13 84.21 0 42.7 15.74 78.48 2.86 6.49 6.24 12.76 13.86 25.62 34.02 44.52 11.8 11.05 25.74 19.81 13.18 8.27 27.44 13.66zm684.01-1.89q30.93 11.96 66.49 11.96 39.01 0 72.09-14 10.3-4.36 20.02-10.08 21.09-12.34 37.69-29.12 15.79-15.95 27.53-35.92 7.1-12.14 12.11-25.08 11.97-30.94 11.97-66.5 0-37.02-12.96-68.73-4.71-11.51-11.12-22.33-11.79-19.97-27.68-35.85-16.55-16.55-37.54-28.66-8.93-5.18-18.36-9.22-33.76-14.51-73.75-14.51-35.56 0-66.49 11.97-12.95 5.01-25.09 12.11-22.08 12.98-39.24 30.71-14.69 15.16-25.81 33.81-5.96 9.98-10.45 20.58-13.62 32.18-13.62 70.12 0 35.56 11.97 66.5 5.01 12.94 12.1 25.08 12.05 20.48 28.31 36.74 16.26 16.26 36.74 28.3 12.14 7.11 25.09 12.12zm392.58-187.55V766h-79.1V420.41h79.1v36.34q.95-1.4 1.93-2.77 9.13-12.75 21.16-21.52 26.44-19.26 66.91-19.26 26.01 0 46.75 9.32 20.92 9.32 39.03 30.23l-51.86 53.27q-8.83-9.5-19.7-13.78-.61-.24-1.22-.46-11.42-4.4-26.54-4.4-22.38 0-39.49 9.49-8.3 4.6-15.35 11.43-21.62 20.74-21.62 65.39zm1369.97 189.44q26.66 10.07 57.11 10.07 37.54 0 67.32-15.2 1.6-.81 3.17-1.67 19.65-10.77 33.9-26.45.72-.79 1.43-1.6V766h79.27V420.41h-79.27v38.22q-2.59-2.99-5.36-5.79-13.16-13.35-30.32-22.76-.88-.49-1.78-.97-29.95-15.91-68.36-15.91-29.68 0-55.75 9.71-15 5.58-28.8 14.37-13.98 8.91-25.79 20.11-20.13 19.06-33.97 44.76-2.02 3.73-3.85 7.54-18.13 37.76-18.13 84.21 0 42.7 15.74 78.48 2.85 6.49 6.24 12.76 13.86 25.62 34.02 44.52 11.8 11.05 25.74 19.81 13.18 8.27 27.44 13.66zm-828.51 6.38l-63.98 140.45h-87.89l86.78-178.82-131.43-310.73h87.19l88.5 225.2 93.61-225.2h87.89l-160.67 349.1zm-1498.37-83.45q-21.24 12.26-49.56 12.26-25.27 0-45.27-10.26-2.82-1.45-5.53-3.1-7.48-4.55-13.88-10.3-12.4-11.14-20.75-26.79-12.48-23.73-12.48-54.67 0-30.93 12.48-54.67 8.68-16.4 21.75-27.75 5.98-5.2 12.88-9.34 2.71-1.64 5.53-3.09 20-10.26 45.27-10.26 27.98 0 49.17 11.99 1.18.66 2.34 1.36 7.77 4.67 14.31 10.67 11.95 10.97 19.79 26.42 12.3 23.74 12.3 54.67 0 34.85-15.49 60.23-4.99 8.17-11.58 15.36-9.56 10.5-21.28 17.27zm2446.56 0q-21.25 12.26-49.56 12.26-25.27 0-45.27-10.26-2.82-1.45-5.53-3.1-7.48-4.55-13.89-10.3-12.39-11.14-20.75-26.79-12.48-23.73-12.48-54.67 0-30.93 12.48-54.67 8.69-16.4 21.75-27.75 5.98-5.2 12.89-9.34 2.71-1.64 5.53-3.09 20-10.26 45.27-10.26 27.98 0 49.17 11.99 1.18.66 2.33 1.36 7.78 4.67 14.31 10.67 11.96 10.97 19.79 26.42 12.31 23.74 12.31 54.67 0 34.85-15.49 60.23-4.99 8.17-11.59 15.36-9.55 10.5-21.27 17.27zm428.17 1.69q-20.08 10.57-45.71 10.57-24.49 0-44.28-9.64-3.51-1.71-6.89-3.72-9.13-5.47-16.59-12.68-10.76-10.39-18.03-24.41-12.13-23.73-12.13-54.67 0-30.93 12.13-54.67 7.6-14.76 19.03-25.44 7.07-6.61 15.59-11.65 3.38-2.01 6.89-3.72 19.79-9.63 44.28-9.63 25.63 0 45.71 10.56 2.5 1.32 4.91 2.79 6.9 4.14 12.88 9.34 13.06 11.35 21.75 27.75 12.66 23.74 12.66 54.67 0 30.94-12.66 54.67-8.35 15.65-20.75 26.79-6.4 5.75-13.88 10.3-2.41 1.48-4.91 2.79zm-2196.4-1.61q-20.99 10.77-47.51 10.77-23.64 0-43.14-8.98-4.28-1.97-8.36-4.38-9.67-5.69-17.51-13.27-10.56-10.2-17.82-23.82l-.18-.34q-12.3-23.6-12.3-53.62 0-30.23 12.48-53.26 6.25-11.38 14.95-20.4 8.91-9.23 20.38-15.99 4.08-2.41 8.36-4.38 19.5-8.98 43.14-8.98 27.28 0 48.41 11.4 1.75.94 3.45 1.96 10.06 6.02 18.2 14.01 9.91 9.73 16.96 22.38.19.34.37.67 12.63 22.8 12.63 52.59 0 29.36-11.93 52.59-.36.69-.72 1.37-7.02 13.34-17.25 23.4-7.98 7.84-17.91 13.69-2.31 1.37-4.7 2.59z" fill="#FFF" fill-rule="evenodd"/></g></svg>