<svg width="903" height="1065" xmlns="http://www.w3.org/2000/svg" xmlns:xlink="http://www.w3.org/1999/xlink" overflow="hidden"><defs><clipPath id="clip0"><rect x="399" y="318" width="903" height="1065"/></clipPath></defs><g clip-path="url(#clip0)" transform="translate(-399 -318)"><path d="M1159.5 1382C1081.35 1382 1018 1318.42 1018 1240 1018 1192.67 1018 1145.33 1018 1098 1065.17 1098 1112.33 1098 1159.5 1098 1237.65 1098 1301 1161.58 1301 1240 1301 1318.42 1237.65 1382 1159.5 1382Z" fill="#AD73FB" fill-rule="evenodd"/><path d="M1206.5 319C1258.69 319 1301 361.309 1301 413.5L1301 413.5C1301 465.691 1258.69 508.001 1206.5 508.001L951.5 508C899.309 508 857 465.691 857 413.5L857 413.5C857 361.309 899.309 319 951.5 319Z" fill="#299AD9" fill-rule="evenodd"/><path d="M1112 413.5C1112 361.309 1154.31 319 1206.5 319 1238 319 1269.5 319 1301 319 1301 350.5 1301 382 1301 413.5 1301 465.691 1258.69 508 1206.5 508 1154.31 508 1112 465.691 1112 413.5Z" fill="#299AD9" fill-rule="evenodd"/><path d="M1004.5 545C1056.69 545 1099 587.309 1099 639.5L1099 639.5C1099 691.691 1056.69 734 1004.5 734L748.5 734C696.309 734 654 691.691 654 639.5L654 639.5C654 587.309 696.309 545 748.5 545Z" fill="#1BC4F9" fill-rule="evenodd"/><path d="M910 639.5C910 587.309 952.309 545 1004.5 545 1036 545 1067.5 545 1099 545 1099 576.5 1099 608 1099 639.5 1099 691.691 1056.69 734 1004.5 734 952.309 734 910 691.691 910 639.5Z" fill="#1BC4F9" fill-rule="evenodd"/><path d="M399 413.501C399 361.309 441.309 319 493.501 319L493.501 319C545.692 319 588.001 361.309 588.001 413.501L588 1287.5C588 1339.69 545.691 1382 493.499 1382L493.501 1382C441.309 1382 399 1339.69 399 1287.5Z" fill="#90E2FC" fill-rule="evenodd"/><path d="M833.5 771C885.691 771 928 813.309 928 865.5L928 865.5C928 917.691 885.691 960.001 833.5 960.001L578.5 960C526.309 960 483.999 917.691 483.999 865.5L484 865.5C484 813.309 526.309 771 578.5 771Z" fill="#90E2FC" fill-rule="evenodd"/><path d="M739 865.5C739 813.309 781.309 771 833.5 771 865 771 896.5 771 928 771 928 802.5 928 834 928 865.5 928 917.691 885.691 960 833.5 960 781.309 960 739 917.691 739 865.5Z" fill="#90E2FC" fill-rule="evenodd"/><path d="M399 413.5C399 361.309 441.309 319 493.5 319 525 319 556.5 319 588 319 588 350.5 588 382 588 413.5 588 465.691 545.691 508 493.5 508 441.309 508 399 465.691 399 413.5Z" fill="#90E2FC" fill-rule="evenodd"/><path d="M588 1287.5C588 1339.69 545.691 1382 493.5 1382 462 1382 430.5 1382 399 1382 399 1350.5 399 1319 399 1287.5 399 1235.31 441.309 1193 493.5 1193 545.691 1193 588 1235.31 588 1287.5Z" fill="#90E2FC" fill-rule="evenodd"/></g></svg>