<svg xmlns="http://www.w3.org/2000/svg" xmlns:xlink="http://www.w3.org/1999/xlink" width="240" height="122" overflow="hidden"><defs><clipPath id="clip0"><rect width="240" height="122" x="1041" y="599"/></clipPath><clipPath id="clip1"><rect width="58" height="71" x="1183" y="624"/></clipPath><clipPath id="clip2"><rect width="58" height="71" x="1183" y="624"/></clipPath><clipPath id="clip3"><rect width="58" height="71" x="1183" y="624"/></clipPath><clipPath id="clip4"><rect width="58" height="71" x="1183" y="624"/></clipPath></defs><g clip-path="url(#clip0)" transform="translate(-1041 -599)"><rect width="119" height="121" x="1161" y="599" fill="#C894EB"/><path fill="#C894EB" fill-rule="evenodd" d="M1161 720 1042 720 1161 599Z"/><g clip-path="url(#clip1)"><g clip-path="url(#clip2)"><g clip-path="url(#clip3)"><g clip-path="url(#clip4)"><path fill="#FFF" fill-rule="evenodd" d="M49.1322 107.339 74.762 80.4206C75.5574 79.5852 76.89 79.5859 77.6844 80.4222L103.253 107.341C104.475 108.627 103.564 110.752 101.792 110.752L50.5926 110.752C48.8173 110.752 47.9075 108.625 49.1322 107.339" transform="matrix(1 0 0 1.01158 1137.1 582.966)"/><path fill="#FFF" fill-rule="evenodd" d="M47.9189 40.5644 100.636 40.5644C102.41 40.5644 103.32 42.6944 102.094 43.9779L49.3771 99.1809C48.1191 100.498 45.9018 99.6088 45.9018 97.786L45.9018 42.5831C45.9018 41.4688 46.8055 40.5644 47.9189 40.5644" transform="matrix(1 0 0 1.01158 1137.1 582.966)"/></g></g></g></g></g></svg>