<svg width="1024.000000" height="1024.000000" viewBox="0 0 1024 1024" fill="none" xmlns="http://www.w3.org/2000/svg" xmlns:xlink="http://www.w3.org/1999/xlink">
	<defs>
		<clipPath id="clip6_128">
			<rect id="mark" width="942.839783" height="1024.000000" transform="translate(41.000000 0.000000)" fill="white" fill-opacity="0"/>
		</clipPath>
		<clipPath id="clip6_94">
			<rect id="samp-mark" width="1024.000000" height="1024.000000" fill="white" fill-opacity="0"/>
		</clipPath>
	</defs>
	<g clip-path="url(#clip6_94)">
		<g clip-path="url(#clip6_128)">
			<mask id="mask6_130" mask-type="alpha" maskUnits="userSpaceOnUse" x="41.000000" y="0.000000" width="942.839783" height="1024.000000">
				<rect id="rect" x="41.000000" width="942.839783" height="1024.000000" fill="#000000" fill-opacity="1.000000"/>
			</mask>
			<g mask="url(#mask6_130)">
				<path id="path" d="M860.28 3.72L976.43 91.24C983.78 96.79 985.26 107.26 979.71 114.63L703.33 481.4L560.51 373.78L836.9 7.01C842.44 -0.36 852.91 -1.83 860.28 3.72ZM703.33 481.4L595.56 624.41L560.51 373.78L703.33 481.4Z" fill="#299AD9" fill-opacity="1.000000" fill-rule="evenodd"/>
				<path id="path" d="M604.61 686.26L712.38 543.24L747.43 793.88L604.61 686.26Z" fill="#1BC4F9" fill-opacity="1.000000" fill-rule="evenodd"/>
				<path id="path" d="M777.08 1004.63L755.95 855.3L612.96 747.54L639.6 935.92L751.1 1019.95C762.72 1028.71 779.12 1019.05 777.08 1004.63Z" fill="#AD73FB" fill-opacity="1.000000" fill-rule="evenodd"/>
				<path id="path" d="M55.07 460.55L518.43 396.29L589.94 898.5L47.5 489.73C35.89 480.99 40.68 462.54 55.07 460.55Z" fill="#90E2FC" fill-opacity="1.000000" fill-rule="evenodd"/>
			</g>
		</g>
		<rect id="rectangle" x="308.000000" y="708.000000" rx="50.000000" width="700.000000" height="300.000000" fill="#FFC225" fill-opacity="1.000000"/>
		<path id="SAMP" d="M436.46 920.57Q447.36 925.8 462.65 925.8Q484.27 925.8 496.67 915.73Q501.3 911.97 504.21 907.15Q509.1 899.06 509.1 888Q509.1 878.12 505.85 871.35Q502.83 864.98 497.94 860.79Q497.64 860.53 497.33 860.27Q495.72 858.98 494.02 857.83Q490.08 855.16 485.59 853.29Q479.22 850.56 472.85 848.41Q466.48 846.26 461.16 843.93Q455.84 841.55 452.59 838.35Q451.66 837.42 451 836.32Q449.34 833.6 449.34 829.86Q449.34 826.53 450.79 824.05Q452 821.98 454.22 820.5Q459.09 817.25 467.53 817.25Q474.91 817.25 480.76 820.15Q486.6 823.01 492.18 829.12L508.4 812.95Q501.72 805.21 491.26 800.33Q480.85 795.46 467.88 795.46Q455.67 795.46 445.91 799.81Q438.66 803.02 433.71 808.37Q432.03 810.18 430.62 812.24Q430.17 812.89 429.76 813.56Q425.04 821.25 425.04 831.84Q425.04 841.55 428.29 847.97Q431.01 853.31 435.19 857.02Q436 857.73 436.86 858.39Q442.18 862.43 448.55 865.15Q454.92 867.83 461.29 869.9Q467.71 871.96 473.02 874.51Q478.34 877.02 481.55 880.62Q482.15 881.29 482.64 882.03Q484.8 885.29 484.8 889.98Q484.8 893.1 483.55 895.59Q482.14 898.4 479.13 900.4Q473.46 904.18 463.93 904.18Q453.34 904.18 445.95 900.13Q438.57 896.09 432.99 888.71L416.77 904.92Q425.61 915.34 436.46 920.57ZM566.17 797.48L515.24 924L540.82 924L549.85 900.4L601.9 900.4L610.82 924L636.92 924L586.17 797.48L566.17 797.48ZM594.15 879.87L576.05 831.99L557.71 879.87L594.15 879.87ZM651.86 797.48L651.86 924L676.34 924L676.34 848.68L707.1 898.07L723.67 898.07L754.65 848.33L754.65 924L778.95 924L778.95 797.48L761.63 797.48L715.46 871.6L669.13 797.48L651.86 797.48ZM804.86 797.48L804.86 924L829.34 924L829.34 877.02L854.74 877.02Q866.73 877.02 876.33 872.22L876.4 872.18Q882.05 869.32 886.31 865.06Q889.3 862.07 891.61 858.39Q891.84 858.01 892.06 857.64Q897.19 848.96 897.19 837.25Q897.19 825.31 891.89 816.57Q891.75 816.34 891.61 816.11Q889.26 812.36 886.2 809.33Q881.98 805.16 876.4 802.35Q876.23 802.27 876.06 802.18Q866.56 797.48 854.74 797.48L804.86 797.48ZM829.34 817.43L829.34 857.02L852.19 857.02Q857.68 857.02 862.17 854.9Q862.39 854.8 862.6 854.69Q865.25 853.38 867.25 851.42Q868.81 849.89 869.99 847.97Q872.71 843.53 872.71 837.25Q872.71 831.1 869.99 826.61Q868.69 824.44 866.91 822.77Q865.02 821 862.6 819.8Q862.25 819.62 861.9 819.46Q857.51 817.43 852.19 817.43L829.34 817.43Z" fill="#000000" fill-opacity="1.000000" fill-rule="evenodd"/>
	</g>
</svg>
