<svg width="1024" height="1024" fill="none" xmlns="http://www.w3.org/2000/svg"><g clip-path="url(#prefix__clip6_94)"><g mask="url(#prefix__mask6_130)" fill-rule="evenodd" clip-path="url(#prefix__clip6_128)"><path d="M860.28 3.72l116.15 87.52c7.35 5.55 8.83 16.02 3.28 23.39L703.33 481.4 560.51 373.78 836.9 7.01c5.54-7.37 16.01-8.84 23.38-3.29zM703.33 481.4L595.56 624.41l-35.05-250.63L703.33 481.4z" fill="#299AD9"/><path d="M604.61 686.26l107.77-143.02 35.05 250.64-142.82-107.62z" fill="#1BC4F9"/><path d="M777.08 1004.63L755.95 855.3 612.96 747.54l26.64 188.38 111.5 84.03c11.62 8.76 28.02-.9 25.98-15.32z" fill="#AD73FB"/><path d="M55.07 460.55l463.36-64.26 71.51 502.21L47.5 489.73c-11.61-8.74-6.82-27.19 7.57-29.18z" fill="#90E2FC"/></g><rect x="308" y="708" rx="50" width="700" height="300" fill="#FFC225"/><path d="M436.46 920.57q10.9 5.23 26.19 5.23 21.62 0 34.02-10.07 4.63-3.76 7.54-8.58 4.89-8.09 4.89-19.15 0-9.88-3.25-16.65-3.02-6.37-7.91-10.56-.3-.26-.61-.52-1.61-1.29-3.31-2.44-3.94-2.67-8.43-4.54-6.37-2.73-12.74-4.88t-11.69-4.48q-5.32-2.38-8.57-5.58-.93-.93-1.59-2.03-1.66-2.72-1.66-6.46 0-3.33 1.45-5.81 1.21-2.07 3.43-3.55 4.87-3.25 13.31-3.25 7.38 0 13.23 2.9 5.84 2.86 11.42 8.97l16.22-16.17q-6.68-7.74-17.14-12.62-10.41-4.87-23.38-4.87-12.21 0-21.97 4.35-7.25 3.21-12.2 8.56-1.68 1.81-3.09 3.87-.45.65-.86 1.32-4.72 7.69-4.72 18.28 0 9.71 3.25 16.13 2.72 5.34 6.9 9.05.81.71 1.67 1.37 5.32 4.04 11.69 6.76 6.37 2.68 12.74 4.75 6.42 2.06 11.73 4.61 5.32 2.51 8.53 6.11.6.67 1.09 1.41 2.16 3.26 2.16 7.95 0 3.12-1.25 5.61-1.41 2.81-4.42 4.81-5.67 3.78-15.2 3.78-10.59 0-17.98-4.05-7.38-4.04-12.96-11.42l-16.22 16.21q8.84 10.42 19.69 15.65zm129.71-123.09L515.24 924h25.58l9.03-23.6h52.05l8.92 23.6h26.1l-50.75-126.52h-20zm27.98 82.39l-18.1-47.88-18.34 47.88h36.44zm57.71-82.39V924h24.48v-75.32l30.76 49.39h16.57l30.98-49.74V924h24.3V797.48h-17.32l-46.17 74.12-46.33-74.12h-17.27zm153 0V924h24.48v-46.98h25.4q11.99 0 21.59-4.8l.07-.04q5.65-2.86 9.91-7.12 2.99-2.99 5.3-6.67.23-.38.45-.75 5.13-8.68 5.13-20.39 0-11.94-5.3-20.68l-.28-.46q-2.35-3.75-5.41-6.78-4.22-4.17-9.8-6.98-.17-.08-.34-.17-9.5-4.7-21.32-4.7h-49.88zm24.48 19.95v39.59h22.85q5.49 0 9.98-2.12.22-.1.43-.21 2.65-1.31 4.65-3.27 1.56-1.53 2.74-3.45 2.72-4.44 2.72-10.72 0-6.15-2.72-10.64-1.3-2.17-3.08-3.84-1.89-1.77-4.31-2.97-.35-.18-.7-.34-4.39-2.03-9.71-2.03h-22.85z" fill="#000" fill-rule="evenodd"/></g></svg>