<svg width="1024" height="1024" fill="none" xmlns="http://www.w3.org/2000/svg"><g clip-path="url(#prefix__clip6_93)"><g mask="url(#prefix__mask6_200)" clip-path="url(#prefix__clip6_197)"><g mask="url(#prefix__mask6_204)"><g mask="url(#prefix__mask6_208)" fill-rule="evenodd"><path d="M740.88 170.61l81.67 61.54c5.17 3.9 6.21 11.26 2.3 16.44L630.52 506.48 530.1 430.81l194.34-257.89c3.9-5.18 11.26-6.21 16.44-2.31zM630.52 506.48l-75.77 100.55-24.65-176.22 100.42 75.67z" fill="#299AD9"/><path d="M561.11 650.52l75.78-100.56 24.64 176.23-100.42-75.67z" fill="#1BC4F9"/><path d="M682.38 874.38l-14.86-105-100.54-75.77 18.73 132.45 78.4 59.09c8.17 6.16 19.7-.63 18.27-10.77z" fill="#AD73FB"/><path d="M174.72 491.82l325.8-45.18 50.28 353.11-381.41-287.41c-8.16-6.15-4.79-19.12 5.33-20.52z" fill="#90E2FC"/></g></g><rect x="352.563" y="665.813" rx="50" width="492.188" height="210.938" fill="#FFC225"/><path d="M442.88 815.27c5.11 2.45 11.25 3.68 18.42 3.68 10.13 0 18.1-2.36 23.92-7.08 2.17-1.76 3.93-3.78 5.3-6.03 2.29-3.8 3.44-8.29 3.44-13.47 0-4.63-.77-8.53-2.29-11.71-1.41-2.98-3.27-5.46-5.56-7.42-.14-.12-.28-.25-.43-.37-.75-.6-1.53-1.17-2.33-1.71a33.008 33.008 0 00-5.92-3.19c-2.99-1.28-5.98-2.43-8.96-3.44-2.99-1-5.73-2.05-8.22-3.15-2.5-1.11-4.5-2.42-6.03-3.92-.43-.44-.81-.91-1.12-1.43-.77-1.27-1.16-2.79-1.16-4.54 0-1.56.34-2.92 1.02-4.08.56-.97 1.37-1.81 2.41-2.5 2.28-1.52 5.4-2.29 9.36-2.29 3.46 0 6.56.68 9.3 2.04 2.74 1.34 5.41 3.45 8.03 6.31l11.4-11.37c-3.13-3.63-7.14-6.58-12.05-8.87-4.88-2.29-10.36-3.43-16.44-3.43-5.72 0-10.87 1.02-15.44 3.06-3.4 1.51-6.26 3.51-8.58 6.02-.79.85-1.51 1.76-2.17 2.72-.22.31-.42.62-.61.93-2.21 3.6-3.32 7.89-3.32 12.85 0 4.55.76 8.34 2.29 11.34 1.27 2.51 2.89 4.63 4.85 6.37.38.33.77.65 1.17.96a38.81 38.81 0 008.22 4.75c2.99 1.26 5.97 2.37 8.96 3.34 3.01.97 5.76 2.05 8.25 3.25 2.49 1.17 4.49 2.6 6 4.29.28.32.53.65.76.99 1.01 1.53 1.52 3.39 1.52 5.59 0 1.47-.29 2.78-.88 3.95-.66 1.31-1.7 2.44-3.11 3.38-2.65 1.77-6.22 2.66-10.68 2.66-4.97 0-9.18-.95-12.65-2.85-3.46-1.89-6.49-4.57-9.11-8.03l-11.4 11.4c4.14 4.88 8.76 8.55 13.84 11zm91.2-86.55l-35.81 88.96h17.99l6.35-16.59h36.6l6.27 16.59h18.35l-35.68-88.96h-14.07zm19.68 57.93l-12.73-33.66-12.89 33.66h25.62zm40.57-57.93v88.96h17.22v-52.96l21.63 34.73h11.65l21.78-34.97v53.2h17.08v-88.96h-12.17l-32.47 52.12-32.57-52.12h-12.15zm107.58 0v88.96h17.22v-33.03h17.85c5.62 0 10.69-1.12 15.19-3.37 2.64-1.35 5.02-3.04 7.01-5.04 1.4-1.4 2.65-2.96 3.73-4.69.11-.18.21-.35.32-.53 2.4-4.07 3.6-8.84 3.6-14.33 0-5.6-1.24-10.45-3.72-14.54-.07-.11-.14-.22-.2-.33a26.36 26.36 0 00-3.81-4.76c-1.97-1.96-4.27-3.59-6.89-4.91-.08-.04-.16-.08-.23-.12-4.46-2.2-9.45-3.31-15-3.31h-35.07zm17.22 14.03v27.84h16.06c2.58 0 4.91-.5 7.02-1.49l.3-.15a12.58 12.58 0 003.27-2.3c.73-.72 1.37-1.53 1.93-2.43 1.27-2.08 1.91-4.59 1.91-7.53 0-2.89-.64-5.38-1.91-7.48-.61-1.02-1.33-1.92-2.17-2.7-.88-.83-1.89-1.53-3.03-2.09-.16-.09-.33-.17-.49-.24-2.06-.95-4.33-1.43-6.83-1.43h-16.06z" fill="#000" fill-rule="evenodd"/></g></g></svg>