<svg width="1024" height="1024" fill="none" xmlns="http://www.w3.org/2000/svg"><g clip-path="url(#prefix__clip5_73)"><g mask="url(#prefix__mask5_78)" fill="#FFF" fill-rule="evenodd" clip-path="url(#prefix__clip5_76)"><path d="M738.77 172.59l81.06 61.09c5.13 3.87 6.16 11.17 2.29 16.32L629.23 505.96l-99.67-75.11 192.89-255.96c3.87-5.14 11.18-6.17 16.32-2.3zM629.23 505.96l-75.21 99.81-24.46-174.92 99.67 75.11zM560.34 648.94l75.21-99.82 24.46 174.92-99.67-75.1zM680.7 871.12l-14.74-104.21-99.79-75.21 18.59 131.47 77.81 58.64c8.11 6.12 19.56-.63 18.13-10.69zM176.82 491.41l323.37-44.84 49.91 350.48-378.57-285.27c-8.09-6.1-4.76-18.98 5.29-20.37z"/></g></g></svg>