<svg width="942.839783" height="1024.000000" viewBox="0 0 942.84 1024" fill="none" xmlns="http://www.w3.org/2000/svg" xmlns:xlink="http://www.w3.org/1999/xlink">
	<defs>
		<clipPath id="clip5_75">
			<rect id="mark-white-origin" width="942.839783" height="1024.000000" fill="white" fill-opacity="0"/>
		</clipPath>
	</defs>
	<g clip-path="url(#clip5_75)">
		<mask id="mask5_95" mask-type="alpha" maskUnits="userSpaceOnUse" x="0.000000" y="0.000000" width="942.839783" height="1024.000000">
			<rect id="rect" width="942.839783" height="1024.000000" fill="#000000" fill-opacity="1.000000"/>
		</mask>
		<g mask="url(#mask5_95)">
			<path id="path" d="M819.28 3.72L935.43 91.24C942.78 96.79 944.26 107.26 938.71 114.63L662.33 481.4L519.51 373.78L795.9 7.01C801.44 -0.36 811.91 -1.83 819.28 3.72ZM662.33 481.4L554.56 624.41L519.51 373.78L662.33 481.4Z" fill="#FFFFFF" fill-opacity="1.000000" fill-rule="evenodd"/>
			<path id="path" d="M563.61 686.26L671.38 543.24L706.43 793.88L563.61 686.26Z" fill="#FFFFFF" fill-opacity="1.000000" fill-rule="evenodd"/>
			<path id="path" d="M736.08 1004.63L714.95 855.3L571.96 747.54L598.6 935.92L710.1 1019.95C721.72 1028.71 738.12 1019.05 736.08 1004.63Z" fill="#FFFFFF" fill-opacity="1.000000" fill-rule="evenodd"/>
			<path id="path" d="M14.07 460.55L477.43 396.29L548.94 898.5L6.5 489.73C-5.11 480.99 -0.32 462.54 14.07 460.55Z" fill="#FFFFFF" fill-opacity="1.000000" fill-rule="evenodd"/>
		</g>
	</g>
</svg>
