<svg width="1024.000000" height="1024.000000" viewBox="0 0 1024 1024" fill="none" xmlns="http://www.w3.org/2000/svg" xmlns:xlink="http://www.w3.org/1999/xlink">
	<defs>
		<clipPath id="clip5_38">
			<rect id="mark" width="658.000000" height="714.641052" transform="translate(167.000000 170.000000)" fill="white" fill-opacity="0"/>
		</clipPath>
		<clipPath id="clip4_35">
			<rect id="mark-border" width="1024.000000" height="1024.000000" fill="white" fill-opacity="0"/>
		</clipPath>
	</defs>
	<g clip-path="url(#clip4_35)">
		<g clip-path="url(#clip5_38)">
			<mask id="mask5_40" mask-type="alpha" maskUnits="userSpaceOnUse" x="167.000000" y="170.000000" width="658.000000" height="714.641052">
				<rect id="rect" x="167.000000" y="170.000000" width="658.000000" height="714.641052" fill="#000000" fill-opacity="1.000000"/>
			</mask>
			<g mask="url(#mask5_40)">
				<path id="path" d="M738.77 172.59L819.83 233.68C824.96 237.55 825.99 244.85 822.12 250L629.23 505.96L529.56 430.85L722.45 174.89C726.32 169.75 733.63 168.72 738.77 172.59ZM629.23 505.96L554.02 605.77L529.56 430.85L629.23 505.96Z" fill="#299AD9" fill-opacity="1.000000" fill-rule="evenodd"/>
				<path id="path" d="M560.34 648.94L635.55 549.12L660.01 724.04L560.34 648.94Z" fill="#1BC4F9" fill-opacity="1.000000" fill-rule="evenodd"/>
				<path id="path" d="M680.7 871.12L665.96 766.91L566.17 691.7L584.76 823.17L662.57 881.81C670.68 887.93 682.13 881.18 680.7 871.12Z" fill="#AD73FB" fill-opacity="1.000000" fill-rule="evenodd"/>
				<path id="path" d="M176.82 491.41L500.19 446.57L550.1 797.05L171.53 511.78C163.44 505.68 166.77 492.8 176.82 491.41Z" fill="#90E2FC" fill-opacity="1.000000" fill-rule="evenodd"/>
			</g>
		</g>
	</g>
</svg>
